<?xml version="1.0" encoding="utf-8"?>
<!-- Generator: Adobe Illustrator 25.0.0, SVG Export Plug-In . SVG Version: 6.00 Build 0)  -->
<svg version="1.1" id="Layer_1" xmlns="http://www.w3.org/2000/svg" xmlns:xlink="http://www.w3.org/1999/xlink" x="0px" y="0px"
	 viewBox="0 0 254 260" style="enable-background:new 0 0 254 260;" xml:space="preserve">
<style type="text/css">
	.st0{fill:#C4C4C4;stroke:#E0E0E0;}
	.st1{fill:#EAEAEA;}
</style>
<path class="st0" d="M237.51,260H16.49C7.38,260,0,252.62,0,243.51V16.49C0,7.38,7.38,0,16.49,0h221.02C246.62,0,254,7.38,254,16.49
	v227.02C254,252.62,246.62,260,237.51,260z"/>
<path class="st1" d="M184.05,74.37c0-0.02,0-0.03,0-0.05V50.83c0-4.11-3.33-7.44-7.44-7.44l-85.67,18c-4.11,0-7.44,3.33-7.44,7.44
	v13.24v10.24v73.99c-3.96,0.37-8.81,1.7-14.17,2.75c-12.55,2.47-21.06,12.9-19.01,23.28c2.05,10.38,13.88,16.79,26.43,14.32
	S95.77,183.38,93.72,173c-0.17-0.86-0.4-1.62-0.67-2.29c-0.37-0.91-0.62-1.86-0.62-2.84v-68.3l83.97-17.75v72.16
	c-4.38-0.28-10.33,1.49-17.09,2.82c-12.55,2.47-21.06,12.9-19.01,23.28c2.05,10.38,13.88,16.79,26.43,14.32
	c11.02-2.17,17.35-18.5,17.33-29.47l0,0V74.37z"/>
</svg>
